<?xml version="1.0" encoding="UTF-8" standalone="no"?>
<svg
   xmlns:dc="http://purl.org/dc/elements/1.1/"
   xmlns:cc="http://creativecommons.org/ns#"
   xmlns:rdf="http://www.w3.org/1999/02/22-rdf-syntax-ns#"
   xmlns:svg="http://www.w3.org/2000/svg"
   xmlns="http://www.w3.org/2000/svg"
   xmlns:sodipodi="http://sodipodi.sourceforge.net/DTD/sodipodi-0.dtd"
   xmlns:inkscape="http://www.inkscape.org/namespaces/inkscape"
   width="113.22872mm"
   height="91.570442mm"
   viewBox="0 0 113.22872 91.570442"
   version="1.1"
   id="svg8"
   inkscape:version="0.92.4 (5da689c313, 2019-01-14)"
   sodipodi:docname="core.svg"
   inkscape:export-filename="C:\SchoolRepositories\college\Web\Assignment1\design\core.png"
   inkscape:export-xdpi="96"
   inkscape:export-ydpi="96">
  <defs
     id="defs2" />
  <sodipodi:namedview
     id="base"
     pagecolor="#ffffff"
     bordercolor="#666666"
     borderopacity="1.0"
     inkscape:pageopacity="0.0"
     inkscape:pageshadow="2"
     inkscape:zoom="1"
     inkscape:cx="34.441452"
     inkscape:cy="110.39266"
     inkscape:document-units="mm"
     inkscape:current-layer="layer1"
     inkscape:document-rotation="0"
     showgrid="false"
     inkscape:window-width="1920"
     inkscape:window-height="1001"
     inkscape:window-x="-9"
     inkscape:window-y="-9"
     inkscape:window-maximized="1"
     inkscape:object-nodes="false"
     inkscape:snap-object-midpoints="true"
     inkscape:snap-center="false"
     inkscape:snap-smooth-nodes="false"
     inkscape:snap-intersection-paths="false"
     inkscape:snap-nodes="true"
     inkscape:object-paths="false"
     inkscape:snap-others="true"
     fit-margin-top="0"
     fit-margin-left="0"
     fit-margin-right="0"
     fit-margin-bottom="0" />
  <metadata
     id="metadata5">
    <rdf:RDF>
      <cc:Work
         rdf:about="">
        <dc:format>image/svg+xml</dc:format>
        <dc:type
           rdf:resource="http://purl.org/dc/dcmitype/StillImage" />
        <dc:title></dc:title>
      </cc:Work>
    </rdf:RDF>
  </metadata>
  <g
     inkscape:label="Layer 1"
     inkscape:groupmode="layer"
     id="layer1"
     transform="translate(-19.248508,-54.680688)">
    <path
       id="path1142"
       style="fill:#ff4a60;fill-opacity:1;stroke:none;stroke-width:0.98753601;stroke-linejoin:round;stroke-miterlimit:4;stroke-dasharray:2.96257, 2.96257;stroke-dashoffset:0;stroke-opacity:1;paint-order:stroke fill markers"
       d="m 49.016853,55.118093 a 9.4534308,9.4221264 86.312243 0 0 -3.43715,-0.41796 9.4534308,9.4221264 86.312243 0 0 -8.78167,8.64463 28.268612,28.268612 0 0 0 -10.97358,13.55245 9.4534308,9.4221264 86.312243 0 0 -6.55631,9.61882 9.4534308,9.4221264 86.312243 0 0 5.70312,8.08613 28.268612,28.268612 0 0 0 9.57625,14.511687 9.4534308,9.4221264 86.312243 0 0 0.0176,0.79024 9.4534308,9.4221264 86.312243 0 0 10.01116,8.82819 9.4534308,9.4221264 86.312243 0 0 6.67808,-3.43703 28.268612,28.268612 0 0 0 2.77292,-0.0424 28.268612,28.268612 0 0 0 13.51296,-4.46025 9.4534308,9.4221264 86.312243 0 0 4.00684,0.619 9.4534308,9.4221264 86.312243 0 0 8.79436,-10.03975 9.4534308,9.4221264 86.312243 0 0 -1.57251,-4.649507 28.268612,28.268612 0 0 0 1.65079,-11.4974 28.268612,28.268612 0 0 0 -0.81862,-5.16805 9.4534308,9.4221264 86.312243 0 0 2.11235,-6.59834 9.4534308,9.4221264 86.312243 0 0 -10.01068,-8.82805 9.4534308,9.4221264 86.312243 0 0 -1.86729,0.31166 28.268612,28.268612 0 0 0 -15.85069,-6.11225 9.4534308,9.4221264 86.312243 0 0 -4.96795,-3.7118 z m 9.86924,12.1986 a 21.150523,21.632806 17.590374 0 1 0.008,0.002 21.150523,21.632806 17.590374 0 1 13.62366,27.0131 21.150523,21.632806 17.590374 0 1 -26.69895,14.229477 21.150523,21.632806 17.590374 0 1 -13.62412,-27.013247 21.150523,21.632806 17.590374 0 1 26.69245,-14.23154 z"
       inkscape:connector-curvature="0" />
    <path
       id="path1142-3"
       style="fill:#bc5fd3;fill-opacity:1;stroke:none;stroke-width:1.04802001;stroke-linejoin:round;stroke-miterlimit:4;stroke-dasharray:3.14402, 3.14402;stroke-dashoffset:0;stroke-opacity:1;paint-order:stroke fill markers"
       d="m 113.93423,88.489953 a 9.9992093,10.032432 17.590374 0 1 -10.76241,3.2142 9.9992093,10.032432 17.590374 0 1 -5.877347,-4.98697 30.000001,30.000001 0 0 0 -17.60964,10.12866 9.9992103,10.032432 17.590374 0 1 1.09417,8.424367 9.9992103,10.032432 17.590374 0 1 -7.93317,6.87539 30.000001,30.000001 0 0 0 4.18971,19.86366 9.9992103,10.032432 17.590374 0 1 5.56507,0.13419 9.9992103,10.032432 17.590374 0 1 6.85069,11.09073 30.000001,30.000001 0 0 0 4.04523,1.61425 30.000001,30.000001 0 0 0 16.187567,0.5452 9.9992103,10.032432 17.590374 0 1 0.45188,-2.42907 9.9992103,10.032432 17.590374 0 1 12.56324,-6.5416 9.9992103,10.032432 17.590374 0 1 1.49709,0.61287 30.000001,30.000001 0 0 0 6.96389,-11.718 30.000001,30.000001 0 0 0 1.31703,-6.80125 9.9992103,10.032432 17.590374 0 1 -5.88005,-12.36544 9.9992103,10.032432 17.590374 0 1 2.43118,-4.02801 30.000001,30.000001 0 0 0 -15.09413,-13.633177 z m -5.43422,8.99799 a 19.65643,19.680175 17.590374 0 1 0.0104,0.003 19.65643,19.680175 17.590374 0 1 12.78993,24.700677 19.65643,19.680175 17.590374 0 1 -24.685027,12.81928 19.65643,19.680175 17.590374 0 1 -12.7896,-24.70001 19.65643,19.680175 17.590374 0 1 24.674347,-12.823237 z"
       inkscape:connector-curvature="0" />
  </g>
</svg>
