<?xml version="1.0" encoding="UTF-8" standalone="no"?>
<svg
   xmlns:dc="http://purl.org/dc/elements/1.1/"
   xmlns:cc="http://creativecommons.org/ns#"
   xmlns:rdf="http://www.w3.org/1999/02/22-rdf-syntax-ns#"
   xmlns:svg="http://www.w3.org/2000/svg"
   xmlns="http://www.w3.org/2000/svg"
   xmlns:sodipodi="http://sodipodi.sourceforge.net/DTD/sodipodi-0.dtd"
   xmlns:inkscape="http://www.inkscape.org/namespaces/inkscape"
   width="210mm"
   height="297mm"
   viewBox="0 0 210 297"
   version="1.1"
   id="svg8"
   inkscape:version="0.92.4 (5da689c313, 2019-01-14)"
   sodipodi:docname="ideas.svg">
  <defs
     id="defs2" />
  <sodipodi:namedview
     id="base"
     pagecolor="#ffffff"
     bordercolor="#666666"
     borderopacity="1.0"
     inkscape:pageopacity="0.0"
     inkscape:pageshadow="2"
     inkscape:zoom="1"
     inkscape:cx="244.35324"
     inkscape:cy="415.20795"
     inkscape:document-units="mm"
     inkscape:current-layer="layer1"
     inkscape:document-rotation="0"
     showgrid="false"
     inkscape:window-width="1920"
     inkscape:window-height="1001"
     inkscape:window-x="-9"
     inkscape:window-y="-9"
     inkscape:window-maximized="1"
     inkscape:object-nodes="false"
     inkscape:snap-object-midpoints="true"
     inkscape:snap-center="false"
     inkscape:snap-smooth-nodes="false"
     inkscape:snap-intersection-paths="false"
     inkscape:snap-nodes="true"
     inkscape:object-paths="false"
     inkscape:snap-others="true" />
  <metadata
     id="metadata5">
    <rdf:RDF>
      <cc:Work
         rdf:about="">
        <dc:format>image/svg+xml</dc:format>
        <dc:type
           rdf:resource="http://purl.org/dc/dcmitype/StillImage" />
        <dc:title></dc:title>
      </cc:Work>
    </rdf:RDF>
  </metadata>
  <g
     inkscape:label="Layer 1"
     inkscape:groupmode="layer"
     id="layer1">
    <rect
       style="fill:#002255;fill-opacity:1;stroke-width:0.424079;stroke-linejoin:round;stroke-dasharray:0.424079, 3.39264;paint-order:stroke fill markers"
       id="rect833"
       width="233.21912"
       height="259.85806"
       x="-28.224716"
       y="22.712606"
       ry="65.635941" />
    <ellipse
       style="fill:#ff4a60;fill-opacity:1;stroke-width:0.164554;stroke-linejoin:round;stroke-dasharray:0.164554, 1.31644;paint-order:stroke fill markers"
       id="path837"
       cx="89.941246"
       cy="91.146301"
       rx="21.904821"
       ry="21.363729" />
    <ellipse
       style="fill:#ffe680;fill-opacity:1;stroke-width:0.185056;stroke-linejoin:round;stroke-dasharray:0.185056, 1.48045;paint-order:stroke fill markers"
       id="path837-3"
       cx="146.42819"
       cy="114.37124"
       rx="26.513481"
       ry="22.322294" />
    <ellipse
       style="fill:#22f521;fill-opacity:1;stroke-width:0.164554;stroke-linejoin:round;stroke-dasharray:0.164554, 1.31644000000000005;paint-order:stroke fill markers"
       id="path837-6"
       cx="121.19295"
       cy="89.471321"
       rx="21.904821"
       ry="21.363729" />
    <ellipse
       style="fill:#dd55ff;fill-opacity:1;stroke-width:0.164554;stroke-linejoin:round;stroke-dasharray:0.164554, 1.31644;paint-order:stroke fill markers"
       id="path837-6-7"
       cx="180.66005"
       cy="126.69998"
       rx="21.904821"
       ry="21.363729" />
    <ellipse
       style="fill:#5599ff;fill-opacity:1;stroke-width:0.164554;stroke-linejoin:round;stroke-dasharray:0.164554, 1.31644000000000005;paint-order:stroke fill markers"
       id="path837-6-7-5"
       cx="153.22908"
       cy="92.164856"
       rx="21.904821"
       ry="21.363729" />
    <g
       id="g860">
      <rect
         ry="6.6402903"
         y="152.64163"
         x="12.498507"
         height="54.447029"
         width="75.886337"
         id="rect835"
         style="fill:#ff4a60;fill-opacity:1;stroke-width:0.109507;stroke-linejoin:round;stroke-dasharray:0.109507, 0.876065;paint-order:stroke fill markers" />
      <rect
         ry="6.1427407"
         y="154.68146"
         x="14.161116"
         height="50.367371"
         width="72.561119"
         id="rect835-3"
         style="fill:#481e40;fill-opacity:1;stroke-width:0.102991;stroke-linejoin:round;stroke-dasharray:0.102991, 0.823938;paint-order:stroke fill markers" />
      <rect
         ry="0.77818793"
         y="165.29239"
         x="49.650627"
         height="35.895378"
         width="1.5820913"
         id="rect852"
         style="fill:#ff9955;fill-opacity:1;stroke-width:0.0332246;stroke-linejoin:round;stroke-dasharray:0.0332246, 0.26579700000000001;paint-order:stroke fill markers" />
      <rect
         transform="rotate(90)"
         ry="0.62483746"
         y="-80.076157"
         x="164.3779"
         height="59.268959"
         width="1.5820913"
         id="rect852-6"
         style="fill:#ff9955;fill-opacity:1;stroke-width:0.0426928;stroke-linejoin:round;stroke-dasharray:0.0426928, 0.34154099999999998;paint-order:stroke fill markers" />
      <rect
         ry="0.72215021"
         y="169.61751"
         x="54.518585"
         height="1.6859226"
         width="20.362185"
         id="rect869"
         style="fill:#5599ff;fill-opacity:1;stroke-width:0.0884428;stroke-linejoin:round;stroke-dasharray:0.0884428, 0.707546;paint-order:stroke fill markers" />
      <rect
         ry="0.36894462"
         y="172.76279"
         x="29.368505"
         height="11.69124"
         width="13.331059"
         id="rect948"
         style="fill:#bc5fd3;fill-opacity:1;stroke-width:0.106807;stroke-linejoin:round;stroke-dasharray:0.106807, 0.85446100000000003;paint-order:stroke fill markers" />
      <rect
         ry="0.36894462"
         y="179.2637"
         x="24.384491"
         height="11.69124"
         width="13.331059"
         id="rect948-2"
         style="fill:#ffe680;fill-opacity:1;stroke-width:0.106807;stroke-linejoin:round;stroke-dasharray:0.106807, 0.854461;paint-order:stroke fill markers" />
      <rect
         ry="0.72215021"
         y="174.45409"
         x="56.533825"
         height="1.6859226"
         width="20.362185"
         id="rect869-9"
         style="fill:#ff5555;fill-opacity:1;stroke-width:0.0884428;stroke-linejoin:round;stroke-dasharray:0.0884428, 0.70754600000000001;paint-order:stroke fill markers" />
      <rect
         ry="0.72215021"
         y="179.29066"
         x="54.518585"
         height="1.6859226"
         width="20.362185"
         id="rect869-1"
         style="fill:#5599ff;fill-opacity:1;stroke-width:0.0884428;stroke-linejoin:round;stroke-dasharray:0.0884428, 0.707546;paint-order:stroke fill markers" />
      <rect
         ry="0.72215021"
         y="184.12723"
         x="54.518585"
         height="1.6859226"
         width="20.362185"
         id="rect869-2"
         style="fill:#5599ff;fill-opacity:1;stroke-width:0.0884428;stroke-linejoin:round;stroke-dasharray:0.0884428, 0.707546;paint-order:stroke fill markers" />
      <rect
         ry="0.72215021"
         y="188.96381"
         x="56.533825"
         height="1.6859226"
         width="20.362185"
         id="rect869-7"
         style="fill:#ffe680;fill-opacity:1;stroke-width:0.0884428;stroke-linejoin:round;stroke-dasharray:0.0884428, 0.707546;paint-order:stroke fill markers" />
      <rect
         ry="0.72215021"
         y="193.80038"
         x="54.518585"
         height="1.6859226"
         width="20.362185"
         id="rect869-0"
         style="fill:#5599ff;fill-opacity:1;stroke-width:0.0884428;stroke-linejoin:round;stroke-dasharray:0.0884428, 0.707546;paint-order:stroke fill markers" />
      <rect
         transform="rotate(90)"
         ry="0.62483746"
         y="-80.076233"
         x="158.33217"
         height="59.268959"
         width="1.5820913"
         id="rect852-6-9"
         style="fill:#ff9955;fill-opacity:1;stroke-width:0.0426928;stroke-linejoin:round;stroke-dasharray:0.0426928, 0.34154099999999998;paint-order:stroke fill markers" />
    </g>
    <g
       id="g1125"
       transform="translate(1.8520833,-1.0583333)">
      <path
         style="fill:none;stroke:#5599ff;stroke-width:1;stroke-linecap:butt;stroke-linejoin:miter;stroke-miterlimit:4;stroke-dasharray:3, 3;stroke-dashoffset:0;stroke-opacity:1"
         d="m 17.769659,225.19919 22.479096,9.01043 -30.23035,21.30339 40.172685,4.67201 21.814906,-34.44888 -31.757241,8.47348 9.942335,25.9754 -32.421431,-34.98583"
         id="path1117"
         inkscape:connector-curvature="0" />
      <ellipse
         style="fill:#ffe680;fill-opacity:1;stroke-width:0.263917;stroke-linejoin:round;stroke-dasharray:0.263917, 2.11134;paint-order:stroke fill markers"
         id="path1034"
         cx="72.005997"
         cy="225.73615"
         rx="3.1387675"
         ry="3" />
      <ellipse
         style="fill:#ffe680;fill-opacity:1;stroke-width:0.263917;stroke-linejoin:round;stroke-dasharray:0.263917, 2.11134;paint-order:stroke fill markers"
         id="path1034-3"
         cx="50.19109"
         cy="260.18503"
         rx="3.1387675"
         ry="3" />
      <ellipse
         style="fill:#ffe680;fill-opacity:1;stroke-width:0.263917;stroke-linejoin:round;stroke-dasharray:0.263917, 2.11134;paint-order:stroke fill markers"
         id="path1034-3-6"
         cx="40.248756"
         cy="234.20963"
         rx="3.1387675"
         ry="3" />
      <ellipse
         style="fill:#ffe680;fill-opacity:1;stroke-width:0.263917;stroke-linejoin:round;stroke-dasharray:0.263917, 2.11134;paint-order:stroke fill markers"
         id="path1034-3-6-0-6"
         cx="10.018405"
         cy="255.51302"
         rx="3.1387675"
         ry="3" />
      <ellipse
         style="fill:#ffe680;fill-opacity:1;stroke-width:0.263917;stroke-linejoin:round;stroke-dasharray:0.263917, 2.11134;paint-order:stroke fill markers"
         id="path1034-3-6-0"
         cx="17.769659"
         cy="225.19919"
         rx="3.1387675"
         ry="3" />
    </g>
    <path
       id="path1142"
       style="fill:#ff4a60;fill-opacity:1;stroke:none;stroke-width:0.987536;stroke-linejoin:round;stroke-miterlimit:4;stroke-dasharray:2.96257, 2.96257;stroke-dashoffset:0;stroke-opacity:1;paint-order:stroke fill markers"
       d="m 139.23977,145.34101 a 9.4534308,9.4221264 86.312243 0 0 -3.43715,-0.41796 9.4534308,9.4221264 86.312243 0 0 -8.78167,8.64463 28.268612,28.268612 0 0 0 -10.97358,13.55245 9.4534308,9.4221264 86.312243 0 0 -6.55631,9.61882 9.4534308,9.4221264 86.312243 0 0 5.70312,8.08613 28.268612,28.268612 0 0 0 9.57625,14.51169 9.4534308,9.4221264 86.312243 0 0 0.0176,0.79024 9.4534308,9.4221264 86.312243 0 0 10.01116,8.82819 9.4534308,9.4221264 86.312243 0 0 6.67808,-3.43703 28.268612,28.268612 0 0 0 2.77292,-0.0424 28.268612,28.268612 0 0 0 13.51296,-4.46025 9.4534308,9.4221264 86.312243 0 0 4.00684,0.619 9.4534308,9.4221264 86.312243 0 0 8.79436,-10.03975 9.4534308,9.4221264 86.312243 0 0 -1.57251,-4.64951 28.268612,28.268612 0 0 0 1.65079,-11.4974 28.268612,28.268612 0 0 0 -0.81862,-5.16805 9.4534308,9.4221264 86.312243 0 0 2.11235,-6.59834 9.4534308,9.4221264 86.312243 0 0 -10.01068,-8.82805 9.4534308,9.4221264 86.312243 0 0 -1.86729,0.31166 28.268612,28.268612 0 0 0 -15.85069,-6.11225 9.4534308,9.4221264 86.312243 0 0 -4.96795,-3.7118 z m 9.86924,12.1986 a 21.150523,21.632806 17.590374 0 1 0.008,0.002 21.150523,21.632806 17.590374 0 1 13.62366,27.0131 21.150523,21.632806 17.590374 0 1 -26.69895,14.22948 21.150523,21.632806 17.590374 0 1 -13.62412,-27.01325 21.150523,21.632806 17.590374 0 1 26.69245,-14.23154 z" />
    <path
       id="path1142-3"
       style="fill:#bc5fd3;fill-opacity:1;stroke:none;stroke-width:1.04802;stroke-linejoin:round;stroke-miterlimit:4;stroke-dasharray:3.14402, 3.14401999999999981;stroke-dashoffset:0;stroke-opacity:1;paint-order:stroke fill markers"
       d="m 204.15715,178.71287 a 9.9992093,10.032432 17.590374 0 1 -10.76241,3.2142 9.9992093,10.032432 17.590374 0 1 -5.87735,-4.98697 30.000001,30.000001 0 0 0 -17.60964,10.12866 9.9992103,10.032432 17.590374 0 1 1.09417,8.42437 9.9992103,10.032432 17.590374 0 1 -7.93317,6.87539 30.000001,30.000001 0 0 0 4.18971,19.86366 9.9992103,10.032432 17.590374 0 1 5.56507,0.13419 9.9992103,10.032432 17.590374 0 1 6.85069,11.09073 30.000001,30.000001 0 0 0 4.04523,1.61425 30.000001,30.000001 0 0 0 16.18757,0.5452 9.9992103,10.032432 17.590374 0 1 0.45188,-2.42907 9.9992103,10.032432 17.590374 0 1 12.56324,-6.5416 9.9992103,10.032432 17.590374 0 1 1.49709,0.61287 30.000001,30.000001 0 0 0 6.96389,-11.718 30.000001,30.000001 0 0 0 1.31703,-6.80125 9.9992103,10.032432 17.590374 0 1 -5.88005,-12.36544 9.9992103,10.032432 17.590374 0 1 2.43118,-4.02801 30.000001,30.000001 0 0 0 -15.09413,-13.63318 z m -5.43422,8.99799 a 19.65643,19.680175 17.590374 0 1 0.0104,0.003 19.65643,19.680175 17.590374 0 1 12.78993,24.70068 19.65643,19.680175 17.590374 0 1 -24.68503,12.81928 19.65643,19.680175 17.590374 0 1 -12.7896,-24.70001 19.65643,19.680175 17.590374 0 1 24.67435,-12.82324 z" />
    <rect
       style="fill:none;fill-opacity:1;stroke:#5599ff;stroke-width:1;stroke-linejoin:round;stroke-miterlimit:4;stroke-dasharray:3, 3;stroke-dashoffset:0;stroke-opacity:1;paint-order:stroke fill markers"
       id="rect1344"
       width="30.709703"
       height="13.654395"
       x="186.59039"
       y="248.04543"
       ry="0.91538686" />
    <g
       id="g205"
       transform="translate(-133.47388,25.717388)">
      <path
         d="m 145.20182,107.24227 c 7.62012,3.35032 16.03169,2.39515 22.55096,-1.79456 -2.0724,-0.10854 -4.12314,-0.3618 -6.15222,-0.73092 -2.31698,-0.41969 -4.61245,-0.99858 -6.8574,-1.70772 -4.49724,-1.41835 -8.8433,-3.321374 -12.93046,-5.680347 -2.04355,-1.179486 -4.02234,-2.481986 -5.90758,-3.900264 -1.65498,-1.251848 -3.23801,-2.590528 -4.7275,-4.052223 1.37436,7.663115 6.39688,14.522944 14.0242,17.866034 z"
         id="path2"
         style="fill:#a02c2c;stroke-width:0.0721582" />
      <path
         d="m 124.88148,75.598824 c 0.86347,4.536969 4.07271,8.741223 7.28913,11.896095 3.97197,3.900265 8.76422,7.076918 13.71479,9.573377 7.95831,4.023354 17.29092,6.830884 26.27101,6.367774 3.40358,-0.17359 7.02296,-0.87557 9.94429,-2.72077 1.02897,-0.64402 1.99318,-1.468935 2.77757,-2.474754 1.53979,-1.968223 2.18026,-4.471918 1.86359,-6.946668 -0.38137,-2.981278 -1.89244,-5.651403 -3.74171,-7.952415 -0.77712,-0.969639 -1.59022,-1.837972 -2.40325,-2.633944 0.26616,1.555764 0.38849,3.133236 0.3741,4.725181 -0.007,0.318389 -0.0143,0.636778 -0.0287,0.955167 0.17262,0.311152 0.33819,0.629541 0.49642,0.94793 0.94269,1.961059 1.71975,4.406792 0.84915,6.526973 -0.59004,1.447223 -1.90683,2.496459 -3.33875,3.104292 -3.03654,1.288028 -6.63433,1.316973 -9.85795,1.063709 -9.18876,-0.723611 -18.31989,-4.341667 -26.11278,-9.175463 -0.87786,-0.542708 -1.73413,-1.121597 -2.57602,-1.707722 -4.08709,-2.872736 -8.44042,-6.534209 -10.40481,-11.266626 -1.00019,-2.409626 -0.95702,-5.050807 1.10812,-6.852598 1.35277,-1.186723 3.30277,-1.91757 5.02971,-2.330029 1.3096,-1.345916 2.7703,-2.547111 4.36052,-3.589111 -0.33099,-0.01447 -0.66199,-0.02895 -1.00018,-0.03618 -3.18045,-0.07236 -6.53359,0.296681 -9.39744,1.794556 -2.1083,1.099889 -3.92879,2.8655 -4.80665,5.086987 -0.69797,1.780083 -0.76273,3.76285 -0.41015,5.64424 z"
         id="path4"
         style="fill:#ff9955;stroke-width:0.0721582" />
      <path
         d="m 138.45236,67.537722 c -1.23045,1.143306 -2.34576,2.416862 -3.31717,3.791723 -1.15849,1.635361 -2.95738,3.87132 -2.09391,5.91914 0.4893,1.165014 1.38155,2.120181 2.26661,2.988514 6.26016,6.136223 14.20408,10.340404 22.4862,13.148016 5.10887,1.729358 10.45519,2.974042 15.83748,2.749722 1.00739,-0.04349 2.10838,-0.180903 2.80628,-0.911822 0.35978,-0.376206 0.56845,-0.861025 0.75554,-1.345917 3.00056,-7.793293 1.60469,-17.135113 -3.54016,-23.691031 -5.14484,-6.555917 -13.85877,-10.094376 -22.09044,-8.965543 -4.35333,0.593362 -8.49079,2.481987 -11.88711,5.260654 -0.42468,0.340169 -0.82756,0.694739 -1.22332,1.056544 z"
         id="path6"
         style="fill:#ff5555;stroke-width:0.0721582" />
      <ellipse
         cx="191.94183"
         cy="65.930511"
         id="circle8"
         style="fill:#2a7fff;stroke-width:0.0721582"
         rx="6.6918941"
         ry="6.7295842" />
      <ellipse
         cx="142.53569"
         cy="48.437378"
         id="circle10"
         style="fill:#bc5fd3;stroke-width:0.0721582"
         rx="3.7560954"
         ry="3.7772505" />
    </g>
  </g>
</svg>
